<?xml version="1.0" encoding="UTF-8" ?>
<!DOCTYPE svg PUBLIC "-//W3C//DTD SVG 1.1//EN" "http://www.w3.org/Graphics/SVG/1.1/DTD/svg11.dtd">
<svg width="320pt" height="70pt" viewBox="0 0 320 70" version="1.1" xmlns="http://www.w3.org/2000/svg">
<g id="#ffffffff">
<path fill="#ffffff" opacity="1.00" d=" M 10.42 2.65 C 18.65 -1.30 29.29 3.89 31.62 12.60 C 34.45 21.26 27.96 31.19 19.00 32.37 C 11.10 33.76 2.88 28.01 1.39 20.15 C -0.31 13.12 3.85 5.46 10.42 2.65 Z" />
<path fill="#ffffff" opacity="1.00" d=" M 230.22 4.20 C 239.42 2.34 249.97 3.33 257.33 9.66 C 264.31 15.63 267.14 25.09 267.32 34.03 C 267.65 43.26 265.74 53.25 259.18 60.16 C 254.36 65.56 247.06 68.12 239.95 68.34 C 232.09 68.71 223.65 66.77 217.93 61.06 C 211.78 55.12 209.38 46.33 209.15 38.00 C 208.86 29.73 210.03 20.93 214.96 14.04 C 218.51 8.91 224.16 5.46 230.22 4.20 M 232.47 10.80 C 227.94 11.78 223.79 14.52 221.36 18.49 C 217.60 24.55 217.08 31.97 217.39 38.93 C 217.72 45.36 219.40 52.23 224.24 56.80 C 229.16 61.48 236.51 62.33 242.96 61.29 C 248.22 60.50 253.03 57.24 255.58 52.55 C 258.65 46.92 259.23 40.32 259.10 34.01 C 258.81 27.39 257.54 20.17 252.63 15.32 C 247.44 10.11 239.33 9.42 232.47 10.80 Z" />
<path fill="#ffffff" opacity="1.00" d=" M 112.31 5.14 C 114.71 4.89 117.13 4.87 119.54 5.11 C 127.58 26.24 135.89 47.27 144.02 68.37 C 141.36 68.37 138.69 68.37 136.03 68.36 C 133.53 61.79 130.97 55.25 128.41 48.71 C 119.96 48.73 111.52 48.69 103.07 48.73 C 100.56 55.28 98.05 61.83 95.54 68.38 C 92.95 68.37 90.36 68.37 87.77 68.38 C 95.95 47.30 104.24 26.26 112.31 5.14 M 115.84 13.06 C 113.29 22.92 109.23 32.28 105.80 41.84 C 112.53 41.85 119.27 41.85 126.01 41.84 C 122.55 32.27 118.76 22.82 115.84 13.06 Z" />
<path fill="#ffffff" opacity="1.00" d=" M 149.59 5.24 C 159.25 5.61 169.07 4.34 178.61 6.27 C 188.26 8.23 196.45 15.83 198.78 25.46 C 201.15 35.56 200.66 47.00 194.97 55.96 C 190.00 63.65 180.86 67.51 171.99 68.15 C 164.53 68.61 157.06 68.27 149.59 68.37 C 149.59 47.33 149.59 26.28 149.59 5.24 M 157.37 61.70 C 165.86 61.63 175.15 62.57 182.62 57.67 C 189.83 53.13 192.10 44.00 191.89 35.97 C 191.95 28.25 189.54 19.55 182.53 15.33 C 175.01 10.65 165.83 12.14 157.44 11.81 C 157.29 28.44 157.42 45.07 157.37 61.70 Z" />
<path fill="#ffffff" opacity="1.00" d=" M 278.81 5.24 C 289.03 5.76 299.80 3.70 309.53 7.70 C 321.96 12.76 322.30 32.43 311.43 39.32 C 304.14 44.26 294.95 43.73 286.56 43.69 C 286.55 51.92 286.56 60.14 286.55 68.37 C 283.97 68.37 281.39 68.37 278.81 68.37 C 278.81 47.33 278.81 26.29 278.81 5.24 M 286.60 11.87 C 286.60 20.26 286.59 28.64 286.61 37.03 C 292.46 36.94 298.57 37.54 304.15 35.39 C 313.27 32.29 313.59 16.89 304.58 13.44 C 298.88 11.13 292.59 12.07 286.60 11.87 Z" />
<path fill="#ffffff" opacity="1.00" d=" M 11.40 37.64 C 19.55 34.43 29.48 39.69 31.64 48.10 C 34.20 56.17 28.76 65.43 20.60 67.42 C 12.46 69.84 3.29 64.17 1.47 55.96 C -0.53 48.47 4.12 40.13 11.40 37.64 Z" />
<path fill="#ffffff" opacity="1.00" d=" M 48.21 37.19 C 57.48 34.50 67.69 42.38 67.61 51.98 C 68.04 60.83 59.73 68.74 50.92 67.91 C 43.24 67.46 36.62 60.68 36.43 52.97 C 36.00 45.79 41.25 38.89 48.21 37.19 Z" />
</g>
<g id="#cb2725ff">
<path fill="#cb2725" opacity="1.00" d=" M 46.31 2.46 C 54.98 -1.33 65.84 4.81 67.32 14.07 C 69.27 22.93 61.90 32.20 52.89 32.51 C 44.62 33.15 36.83 26.15 36.46 17.89 C 36.01 11.34 40.17 4.80 46.31 2.46 Z" />
</g>
</svg>
