<?xml version="1.0" encoding="UTF-8" ?>
<!DOCTYPE svg PUBLIC "-//W3C//DTD SVG 1.1//EN" "http://www.w3.org/Graphics/SVG/1.1/DTD/svg11.dtd">
<svg width="400pt" height="400pt" viewBox="0 0 400 400" version="1.1" xmlns="http://www.w3.org/2000/svg">
<g id="#efede6fe">
<path fill="#efede6" opacity="1.00" d=" M 0.00 0.00 L 400.00 0.00 L 400.00 400.00 L 0.00 400.00 L 0.00 0.00 M 40.46 152.92 C 40.09 156.88 39.62 161.39 42.10 164.80 C 45.05 169.40 50.50 172.36 56.01 171.65 C 61.45 171.60 65.71 167.52 68.42 163.17 C 71.04 156.51 68.99 148.10 62.61 144.39 C 54.77 139.18 42.59 143.60 40.46 152.92 M 82.47 143.76 C 79.80 145.46 77.56 147.91 76.28 150.83 C 73.19 158.32 77.08 167.75 84.86 170.42 C 93.68 174.35 104.96 166.66 104.69 157.06 C 105.29 150.77 100.86 144.77 95.10 142.62 C 90.94 142.03 86.23 141.51 82.47 143.76 M 255.03 146.73 C 248.98 149.83 243.56 154.40 240.34 160.47 C 236.04 167.83 236.78 176.83 237.96 184.93 C 241.24 193.65 248.10 201.10 256.89 204.40 C 265.03 207.22 274.41 206.89 282.06 202.79 C 289.14 199.10 294.52 192.57 297.23 185.10 C 299.10 178.29 299.22 170.82 296.70 164.15 C 294.57 158.21 290.17 153.34 285.18 149.60 C 276.53 143.40 264.75 142.85 255.03 146.73 M 125.26 176.95 C 122.70 182.84 120.41 188.84 117.90 194.74 C 116.51 198.22 114.75 201.59 114.10 205.32 C 117.47 205.20 120.95 205.69 124.21 204.60 C 126.33 199.63 127.55 194.05 130.76 189.69 C 139.20 189.55 147.65 189.69 156.10 189.64 C 156.37 190.20 156.92 191.33 157.20 191.89 C 157.74 193.27 158.30 194.65 158.85 196.04 C 160.13 199.13 161.32 202.26 162.72 205.30 C 166.02 205.26 169.38 205.58 172.61 204.68 C 171.66 202.52 170.73 200.36 169.77 198.22 C 164.31 184.70 158.70 171.24 153.22 157.73 C 151.57 153.96 150.11 150.12 148.50 146.34 C 144.94 146.35 141.38 146.35 137.82 146.36 C 133.61 156.55 129.39 166.73 125.26 176.95 M 180.32 205.59 C 187.86 205.52 195.40 205.61 202.94 205.56 C 209.28 205.56 215.00 202.32 220.23 199.08 C 225.20 196.00 227.75 190.44 229.25 185.01 C 229.98 176.34 230.69 166.84 225.85 159.15 C 221.31 152.39 213.38 149.13 205.94 146.66 C 197.40 146.31 188.86 146.62 180.32 146.47 C 180.25 166.18 180.25 185.89 180.32 205.59 M 306.22 192.01 C 306.24 196.50 306.20 201.00 306.28 205.49 C 309.52 205.44 312.77 205.46 316.01 205.49 C 316.76 197.93 316.04 190.32 316.43 182.75 C 321.64 182.73 326.85 182.92 332.06 182.68 C 336.60 182.50 340.58 179.76 343.79 176.75 C 349.49 171.20 349.97 161.63 345.77 155.06 C 343.06 150.84 338.58 148.36 334.01 146.63 C 324.78 146.35 315.53 146.61 306.30 146.48 C 306.13 161.65 306.30 176.83 306.22 192.01 M 51.52 177.85 C 46.83 179.05 42.94 182.63 41.19 187.13 C 38.12 194.86 42.93 204.50 51.02 206.52 C 55.02 207.15 59.54 207.23 63.01 204.85 C 67.19 202.03 70.34 197.20 69.84 192.00 C 70.15 182.81 60.33 175.35 51.52 177.85 M 77.29 182.28 C 73.89 186.09 74.13 191.36 74.57 196.10 C 77.49 202.71 84.62 207.79 92.04 205.89 C 102.02 204.20 107.38 191.09 101.21 183.00 C 96.03 174.85 82.93 174.42 77.29 182.28 M 68.19 219.54 C 68.13 223.97 68.17 228.40 68.44 232.82 L 68.39 233.30 C 70.73 233.66 73.16 233.89 75.50 233.37 C 77.48 232.74 78.37 230.71 79.50 229.15 C 79.65 225.97 79.29 221.92 75.99 220.44 C 73.42 219.89 70.80 219.71 68.19 219.54 M 172.61 219.79 C 166.93 221.02 165.74 229.54 170.31 232.73 C 174.10 235.73 180.62 232.96 180.57 227.95 C 181.67 223.39 177.22 218.59 172.61 219.79 M 279.57 219.64 L 279.33 220.54 L 278.54 220.32 C 278.59 224.72 278.56 229.12 278.58 233.52 C 279.04 233.53 279.96 233.54 280.42 233.54 C 280.42 231.81 280.41 230.08 280.42 228.36 C 283.10 228.09 286.71 228.86 288.42 226.16 C 289.10 224.21 288.91 221.71 286.96 220.56 C 284.54 219.98 282.05 219.73 279.57 219.64 M 313.75 219.69 C 313.21 219.99 312.14 220.57 311.60 220.87 C 311.55 221.58 311.44 223.01 311.38 223.72 C 310.47 223.73 308.66 223.75 307.75 223.75 C 307.62 222.81 307.37 220.93 307.25 219.99 C 304.20 223.92 305.88 229.08 306.50 233.53 C 307.17 233.59 308.50 233.71 309.16 233.77 C 307.46 230.75 306.81 226.97 308.78 223.90 C 313.19 225.57 310.73 230.70 311.74 234.21 C 314.43 232.03 312.42 228.03 313.40 225.11 C 313.79 225.35 314.59 225.83 314.98 226.07 C 315.71 228.16 315.80 230.42 316.48 232.54 C 318.29 233.48 320.40 234.23 322.41 233.40 C 326.07 231.28 325.44 224.56 321.13 223.53 C 318.24 223.54 313.31 226.42 312.79 221.84 C 313.45 221.77 314.78 221.63 315.45 221.56 C 315.41 221.08 315.33 220.12 315.29 219.64 C 314.91 219.65 314.13 219.68 313.75 219.69 M 45.58 220.28 C 43.65 224.61 42.26 229.14 40.36 233.48 C 40.85 233.51 41.85 233.58 42.35 233.61 C 42.84 232.24 43.34 230.88 43.82 229.52 C 45.62 229.48 47.42 229.46 49.22 229.44 C 49.75 230.77 50.29 232.09 50.81 233.43 C 51.35 233.47 52.45 233.54 52.99 233.58 C 51.33 229.14 49.35 224.84 47.71 220.39 C 47.18 220.37 46.11 220.31 45.58 220.28 M 54.08 220.26 C 54.06 224.72 54.04 229.19 54.13 233.66 C 54.66 233.59 55.70 233.46 56.23 233.39 C 56.20 229.10 56.21 224.81 56.25 220.52 C 55.71 220.46 54.62 220.32 54.08 220.26 M 58.51 220.33 C 58.52 224.75 58.50 229.17 58.54 233.60 L 60.28 233.43 C 60.25 229.12 60.24 224.81 60.29 220.50 C 59.85 220.45 58.95 220.37 58.51 220.33 M 81.79 220.20 C 82.25 221.92 82.31 223.72 81.72 225.43 C 81.63 228.12 81.64 230.82 81.64 233.52 C 82.07 233.52 82.93 233.54 83.36 233.55 C 83.37 230.89 83.39 228.23 83.28 225.57 C 82.69 223.87 82.80 222.08 83.28 220.37 C 82.91 220.33 82.16 220.24 81.79 220.20 M 95.78 221.60 C 95.45 222.57 95.13 223.55 94.80 224.52 C 95.86 227.08 95.31 229.89 95.72 232.57 C 96.32 233.71 97.97 233.52 98.99 234.06 C 97.67 231.52 97.20 228.74 97.46 225.90 C 99.25 225.26 98.46 224.13 97.60 223.09 C 97.53 222.39 97.40 221.01 97.33 220.32 C 96.81 220.74 96.29 221.17 95.78 221.60 M 106.82 220.35 C 107.39 222.15 107.43 224.06 106.86 225.88 C 106.63 228.84 106.47 231.95 108.10 234.61 C 109.35 229.94 108.47 225.07 108.69 220.32 C 108.23 220.33 107.29 220.34 106.82 220.35 M 111.04 220.25 C 111.09 224.68 111.02 229.11 111.11 233.54 C 113.55 233.32 116.72 234.76 118.52 232.50 C 120.22 230.76 119.95 227.90 119.28 225.76 C 118.17 223.32 115.36 223.46 113.12 223.58 C 113.17 222.84 113.28 221.34 113.33 220.60 C 112.76 220.51 111.61 220.34 111.04 220.25 M 137.71 220.36 C 137.39 221.73 137.57 223.38 136.51 224.46 C 136.05 224.56 135.14 224.76 134.68 224.87 C 134.59 223.98 134.41 222.21 134.32 221.32 C 133.93 221.32 133.16 221.31 132.77 221.31 C 132.45 222.48 132.13 223.66 131.78 224.83 C 130.79 224.65 128.81 224.29 127.82 224.11 C 127.79 226.64 127.75 229.18 127.53 231.71 C 126.19 231.71 124.85 231.70 123.52 231.66 C 123.45 228.79 123.47 225.92 123.23 223.06 C 122.45 223.89 121.35 224.66 121.62 225.98 C 121.72 228.43 121.08 231.25 122.80 233.31 C 124.98 233.99 127.29 233.35 129.53 233.44 C 129.55 230.44 129.56 227.44 129.60 224.45 C 130.33 224.73 131.79 225.29 132.52 225.57 C 132.49 228.16 132.51 230.75 132.66 233.34 C 133.74 233.49 134.82 233.65 135.91 233.80 C 134.54 231.75 133.95 229.39 134.30 226.93 C 134.41 225.10 135.30 224.74 136.97 225.84 C 138.29 227.93 137.21 230.99 137.55 233.47 C 138.00 233.49 138.89 233.53 139.33 233.55 C 139.36 229.14 139.00 224.73 139.20 220.32 C 138.83 220.33 138.08 220.35 137.71 220.36 M 198.37 220.43 C 198.59 224.74 198.46 229.07 198.47 233.39 C 194.38 232.94 194.22 227.15 196.43 224.71 C 195.60 223.37 195.28 221.54 193.66 220.90 C 193.59 221.40 193.43 222.40 193.35 222.90 C 192.68 223.92 192.23 225.15 193.41 226.10 C 193.51 228.56 193.54 231.02 193.66 233.48 C 195.85 233.47 198.05 233.39 200.25 233.44 C 200.23 230.57 200.51 227.63 199.81 224.81 C 199.69 223.30 199.81 221.78 200.04 220.29 C 199.62 220.32 198.79 220.39 198.37 220.43 M 218.21 220.31 C 218.52 225.04 217.58 229.84 218.74 234.49 C 221.16 232.22 220.20 228.81 220.24 225.90 C 219.74 224.08 219.68 222.17 220.28 220.37 C 219.76 220.35 218.73 220.33 218.21 220.31 M 242.93 221.97 C 242.50 222.87 242.08 223.78 241.64 224.68 C 241.89 224.94 242.41 225.46 242.66 225.73 C 242.67 228.82 241.56 233.70 245.98 234.17 C 245.04 231.59 244.27 228.95 244.62 226.17 C 245.51 225.11 246.05 223.93 244.72 222.98 C 244.63 222.29 244.45 220.92 244.36 220.23 C 243.88 220.81 243.40 221.39 242.93 221.97 M 247.50 220.45 C 247.64 221.21 247.74 221.98 247.78 222.76 C 247.36 226.40 247.66 230.10 247.62 233.76 L 249.49 233.36 C 249.98 229.94 249.70 226.46 249.70 223.01 C 249.69 222.33 249.67 220.97 249.67 220.29 C 249.13 220.33 248.04 220.41 247.50 220.45 M 290.75 220.45 C 290.82 224.77 290.78 229.10 290.78 233.43 C 291.21 233.47 292.07 233.55 292.50 233.59 C 292.52 229.19 292.52 224.80 292.56 220.41 C 292.11 220.42 291.20 220.44 290.75 220.45 M 152.30 224.38 C 152.42 227.81 151.93 231.33 153.00 234.66 C 154.00 231.64 154.08 228.44 154.55 225.32 C 155.51 225.38 157.42 225.50 158.38 225.57 C 158.46 228.22 158.47 230.87 158.47 233.53 C 158.93 233.50 159.85 233.45 160.32 233.42 C 160.11 230.46 160.97 227.20 159.37 224.50 C 157.44 222.62 154.57 224.23 152.30 224.38 M 182.66 223.81 C 182.65 228.34 182.58 232.87 182.64 237.40 C 183.08 237.39 183.94 237.37 184.38 237.36 C 184.34 236.07 184.31 234.78 184.27 233.49 C 185.72 233.66 187.16 233.66 188.60 233.50 C 189.92 232.53 190.57 230.96 191.46 229.63 C 191.02 228.08 190.78 226.43 190.02 224.99 C 188.28 222.62 185.10 224.04 182.66 223.81 M 232.15 227.20 C 233.66 225.78 235.54 225.16 237.57 225.14 C 237.64 225.71 237.78 226.85 237.84 227.42 C 235.72 227.79 233.60 228.28 231.75 229.42 C 231.37 230.39 230.98 231.36 230.59 232.33 L 230.75 231.82 C 228.72 231.75 226.70 231.68 224.67 231.61 C 226.09 229.90 227.54 228.21 228.93 226.48 C 228.80 226.19 228.54 225.61 228.41 225.32 C 229.03 224.97 230.26 224.26 230.87 223.91 C 227.85 224.10 223.70 222.30 221.55 225.20 C 223.43 225.37 225.32 225.47 227.21 225.59 C 225.03 228.08 222.87 230.61 221.08 233.40 C 224.07 233.72 227.09 233.75 230.10 233.85 C 230.74 233.40 231.37 232.94 231.99 232.48 C 234.21 234.73 237.51 233.01 240.25 233.46 C 240.05 230.54 240.35 227.51 239.42 224.69 C 237.20 222.52 231.56 223.23 232.15 227.20 M 254.49 223.73 C 251.38 224.96 250.53 229.10 252.23 231.77 C 253.60 234.58 258.40 234.49 259.87 231.80 C 262.46 228.23 259.07 222.11 254.49 223.73 M 333.39 224.15 C 333.29 227.07 333.29 230.00 333.29 232.93 L 334.74 232.91 C 334.71 230.36 334.89 227.81 335.39 225.31 C 336.45 225.36 337.52 225.42 338.59 225.48 C 338.62 228.13 338.63 230.78 338.61 233.43 C 339.10 233.46 340.08 233.53 340.57 233.56 C 340.59 230.85 340.63 228.14 340.73 225.44 C 341.65 225.45 343.50 225.47 344.42 225.48 C 344.50 228.37 344.46 231.28 344.73 234.17 C 347.55 232.42 345.89 228.66 346.32 225.96 C 345.98 225.35 345.31 224.13 344.98 223.52 C 341.12 224.86 337.28 223.29 333.39 224.15 M 85.46 227.24 C 86.99 229.97 92.22 228.44 91.66 232.55 C 89.14 232.86 87.26 231.25 85.27 230.03 C 85.08 234.50 92.23 235.24 93.38 231.17 C 93.83 227.05 87.40 228.93 87.09 225.19 C 89.10 225.08 90.91 225.79 92.60 226.76 C 92.61 226.19 92.63 225.05 92.64 224.48 C 90.01 222.97 85.00 223.14 85.46 227.24 M 100.43 224.50 C 100.50 227.51 100.48 230.52 100.46 233.54 C 100.96 233.51 101.95 233.47 102.45 233.44 C 102.45 230.83 102.50 228.22 102.65 225.62 C 103.39 225.56 104.87 225.45 105.61 225.40 L 105.38 223.41 C 103.73 223.77 102.09 224.15 100.43 224.50 M 143.43 233.68 C 145.65 233.73 148.58 234.05 149.65 231.57 C 151.59 228.21 149.31 222.62 144.88 223.56 C 140.22 224.53 140.34 231.03 143.43 233.68 M 202.53 224.34 C 202.57 227.23 202.54 230.11 202.52 233.00 C 203.02 232.86 204.03 232.59 204.53 232.45 C 204.60 230.13 204.59 227.82 204.72 225.51 C 205.63 225.48 207.43 225.43 208.34 225.40 C 208.37 228.36 208.31 231.32 208.64 234.26 C 211.33 232.12 210.01 228.40 210.50 225.42 C 211.58 225.40 212.66 225.39 213.74 225.37 C 214.38 228.43 214.12 231.60 214.95 234.62 C 216.38 231.43 215.71 227.89 215.64 224.52 C 213.05 222.61 210.18 225.61 207.71 223.52 C 207.06 223.70 205.77 224.06 205.13 224.24 C 204.48 224.26 203.18 224.32 202.53 224.34 M 262.49 224.19 C 262.58 227.31 262.56 230.44 262.56 233.57 C 263.01 233.56 263.91 233.52 264.36 233.50 C 264.25 230.64 264.73 227.76 264.30 224.92 C 263.85 224.74 262.94 224.37 262.49 224.19 M 265.97 224.83 C 266.62 225.05 267.90 225.50 268.54 225.73 C 268.66 228.30 268.67 230.88 268.67 233.45 C 269.13 233.47 270.05 233.49 270.52 233.51 C 270.51 230.57 270.49 227.64 270.39 224.71 C 269.01 224.39 265.80 222.01 265.97 224.83 M 295.44 224.59 C 295.44 225.24 295.44 226.55 295.44 227.20 C 296.18 226.60 296.92 225.99 297.65 225.38 C 298.67 225.34 299.69 225.29 300.72 225.26 C 300.76 225.80 300.86 226.88 300.90 227.43 C 298.67 228.07 295.55 227.85 294.61 230.47 C 294.72 231.59 295.28 232.59 295.64 233.64 C 298.21 233.63 300.79 233.36 303.37 233.49 C 303.08 230.52 303.79 227.33 302.39 224.58 C 300.47 222.62 297.62 223.86 295.44 224.59 M 326.55 224.50 C 326.63 227.48 326.61 230.47 326.57 233.45 C 327.06 233.47 328.04 233.50 328.53 233.52 C 328.55 230.90 328.60 228.27 328.76 225.65 C 329.48 225.60 330.93 225.49 331.65 225.44 C 331.59 224.93 331.46 223.92 331.39 223.41 C 329.77 223.77 328.17 224.15 326.55 224.50 Z" />
<path fill="#efede6" opacity="1.00" d=" M 258.91 154.91 C 262.96 152.96 267.61 153.22 271.97 153.56 C 280.28 155.03 286.86 161.77 289.40 169.65 C 289.91 174.99 290.28 180.78 287.32 185.54 C 284.05 191.73 277.83 195.81 271.10 197.35 C 266.05 197.73 260.83 196.96 256.45 194.30 C 249.46 190.26 244.93 182.13 245.54 174.03 C 245.76 165.75 251.49 158.24 258.91 154.91 Z" />
<path fill="#efede6" opacity="1.00" d=" M 189.63 155.03 C 198.47 153.94 208.82 154.71 215.02 161.95 C 220.45 167.57 220.15 175.88 219.35 183.10 C 217.18 188.76 212.88 193.75 207.04 195.78 C 201.52 198.05 195.49 197.27 189.68 197.37 C 189.60 183.25 189.70 169.14 189.63 155.03 Z" />
<path fill="#efede6" opacity="1.00" d=" M 316.33 155.32 C 320.89 155.40 325.45 155.18 330.00 155.44 C 334.11 155.81 336.98 159.25 338.48 162.83 C 338.38 164.56 338.29 166.30 338.16 168.03 C 336.37 171.12 333.46 173.25 330.08 174.33 C 325.51 174.33 320.94 174.32 316.37 174.35 C 316.27 168.00 316.34 161.66 316.33 155.32 Z" />
<path fill="#efede6" opacity="1.00" d=" M 136.82 173.92 C 138.91 168.61 140.95 163.29 143.13 158.02 C 146.01 165.81 149.93 173.28 151.93 181.36 C 145.98 181.30 140.04 181.36 134.10 181.32 C 134.85 178.79 135.83 176.35 136.82 173.92 Z" />
<path fill="#efede6" opacity="1.00" d=" M 70.39 222.07 L 71.87 221.56 C 72.21 221.61 72.88 221.70 73.22 221.75 C 74.06 221.98 75.75 222.43 76.59 222.66 C 77.66 225.54 77.47 228.57 76.39 231.43 C 74.35 231.56 72.30 231.66 70.26 231.74 C 70.26 228.52 70.20 225.29 70.39 222.07 Z" />
<path fill="#efede6" opacity="1.00" d=" M 172.13 222.17 C 175.84 220.08 179.48 224.39 178.39 228.01 C 178.48 232.23 171.78 233.34 170.33 229.58 C 169.01 227.26 169.65 223.44 172.13 222.17 Z" />
<path fill="#efede6" opacity="1.00" d=" M 45.88 223.45 C 46.22 223.44 46.91 223.42 47.25 223.41 C 47.71 224.88 48.22 226.35 48.71 227.81 C 47.27 227.78 45.83 227.75 44.40 227.71 C 44.92 226.30 45.42 224.88 45.88 223.45 Z" />
<path fill="#efede6" opacity="1.00" d=" M 281.35 225.64 C 280.67 224.45 281.35 223.08 281.46 221.84 C 282.73 221.99 285.25 222.31 286.51 222.47 C 286.56 223.81 286.51 225.16 286.47 226.51 C 284.78 226.26 282.82 226.69 281.35 225.64 Z" />
<path fill="#efede6" opacity="1.00" d=" M 113.85 225.56 C 114.84 225.48 115.84 225.40 116.83 225.33 C 118.12 228.07 117.89 231.31 115.03 232.94 C 114.18 231.69 113.33 230.44 112.51 229.18 C 112.96 227.97 113.40 226.77 113.85 225.56 Z" />
<path fill="#efede6" opacity="1.00" d=" M 143.85 225.38 C 144.99 225.38 146.13 225.35 147.26 225.47 C 148.62 226.75 148.48 228.66 148.75 230.35 C 147.55 231.31 146.28 232.16 144.94 232.92 C 144.15 231.67 143.37 230.43 142.61 229.16 C 143.03 227.90 143.44 226.64 143.85 225.38 Z" />
<path fill="#efede6" opacity="1.00" d=" M 184.65 225.53 C 185.93 225.43 187.22 225.35 188.51 225.28 C 189.94 228.09 189.66 232.56 185.72 232.86 C 184.16 230.68 184.11 228.06 184.65 225.53 Z" />
<path fill="#efede6" opacity="1.00" d=" M 253.59 225.52 C 255.18 225.45 256.78 225.45 258.38 225.50 C 258.51 227.55 258.54 229.61 258.44 231.66 C 256.79 231.71 255.14 231.69 253.49 231.61 C 253.43 229.57 253.47 227.54 253.59 225.52 Z" />
<path fill="#efede6" opacity="1.00" d=" M 318.12 225.71 C 319.55 225.42 321.00 225.31 322.48 225.39 C 322.76 227.84 323.19 230.51 321.39 232.53 C 320.48 232.47 319.59 232.42 318.69 232.38 C 317.60 230.32 316.99 227.91 318.12 225.71 Z" />
<path fill="#efede6" opacity="1.00" d=" M 296.61 229.82 C 298.26 229.30 300.00 229.30 301.72 229.22 C 301.32 230.08 300.51 231.79 300.11 232.64 C 298.17 232.56 295.72 232.49 296.61 229.82 Z" />
<path fill="#efede6" opacity="1.00" d=" M 234.57 230.07 C 235.24 230.01 236.57 229.87 237.24 229.80 C 237.43 231.24 236.71 231.96 235.06 231.97 L 234.37 231.63 C 234.42 231.24 234.52 230.46 234.57 230.07 Z" />
</g>
<g id="#27007eff">
<path fill="#27007e" opacity="1.00" d=" M 40.46 152.92 C 42.59 143.60 54.77 139.18 62.61 144.39 C 68.99 148.10 71.04 156.51 68.42 163.17 C 65.71 167.52 61.45 171.60 56.01 171.65 C 50.50 172.36 45.05 169.40 42.10 164.80 C 39.62 161.39 40.09 156.88 40.46 152.92 Z" />
<path fill="#27007e" opacity="1.00" d=" M 51.52 177.85 C 60.33 175.35 70.15 182.81 69.84 192.00 C 70.34 197.20 67.19 202.03 63.01 204.85 C 59.54 207.23 55.02 207.15 51.02 206.52 C 42.93 204.50 38.12 194.86 41.19 187.13 C 42.94 182.63 46.83 179.05 51.52 177.85 Z" />
<path fill="#27007e" opacity="1.00" d=" M 77.29 182.28 C 82.93 174.42 96.03 174.85 101.21 183.00 C 107.38 191.09 102.02 204.20 92.04 205.89 C 84.62 207.79 77.49 202.71 74.57 196.10 C 74.13 191.36 73.89 186.09 77.29 182.28 Z" />
<path fill="#27007e" opacity="1.00" d=" M 68.19 219.54 C 70.80 219.71 73.42 219.89 75.99 220.44 C 75.30 220.77 73.91 221.42 73.22 221.75 C 72.88 221.70 72.21 221.61 71.87 221.56 C 71.22 221.50 69.92 221.37 69.27 221.31 C 68.76 225.12 68.76 228.99 68.44 232.82 C 68.17 228.40 68.13 223.97 68.19 219.54 Z" />
<path fill="#27007e" opacity="1.00" d=" M 172.61 219.79 C 177.22 218.59 181.67 223.39 180.57 227.95 C 180.62 232.96 174.10 235.73 170.31 232.73 C 165.74 229.54 166.93 221.02 172.61 219.79 M 172.13 222.17 C 169.65 223.44 169.01 227.26 170.33 229.58 C 171.78 233.34 178.48 232.23 178.39 228.01 C 179.48 224.39 175.84 220.08 172.13 222.17 Z" />
<path fill="#27007e" opacity="1.00" d=" M 279.57 219.64 C 282.05 219.73 284.54 219.98 286.96 220.56 C 285.99 220.71 285.02 220.86 284.05 221.03 C 284.67 221.39 285.90 222.11 286.51 222.47 C 285.25 222.31 282.73 221.99 281.46 221.84 C 281.35 223.08 280.67 224.45 281.35 225.64 C 282.82 226.69 284.78 226.26 286.47 226.51 C 284.24 226.69 282.01 226.90 279.79 227.06 C 279.95 224.99 280.15 222.93 280.68 220.92 C 280.34 220.83 279.66 220.64 279.33 220.54 L 279.57 219.64 Z" />
<path fill="#27007e" opacity="1.00" d=" M 54.08 220.26 C 54.62 220.32 55.71 220.46 56.25 220.52 C 56.21 224.81 56.20 229.10 56.23 233.39 C 55.70 233.46 54.66 233.59 54.13 233.66 C 54.04 229.19 54.06 224.72 54.08 220.26 Z" />
<path fill="#27007e" opacity="1.00" d=" M 111.04 220.25 C 111.61 220.34 112.76 220.51 113.33 220.60 C 113.28 221.34 113.17 222.84 113.12 223.58 C 115.36 223.46 118.17 223.32 119.28 225.76 C 119.95 227.90 120.22 230.76 118.52 232.50 C 116.72 234.76 113.55 233.32 111.11 233.54 C 111.02 229.11 111.09 224.68 111.04 220.25 M 113.85 225.56 C 113.40 226.77 112.96 227.97 112.51 229.18 C 113.33 230.44 114.18 231.69 115.03 232.94 C 117.89 231.31 118.12 228.07 116.83 225.33 C 115.84 225.40 114.84 225.48 113.85 225.56 Z" />
<path fill="#27007e" opacity="1.00" d=" M 218.21 220.31 C 218.73 220.33 219.76 220.35 220.28 220.37 C 219.68 222.17 219.74 224.08 220.24 225.90 C 220.20 228.81 221.16 232.22 218.74 234.49 C 217.58 229.84 218.52 225.04 218.21 220.31 Z" />
<path fill="#27007e" opacity="1.00" d=" M 247.50 220.45 C 248.04 220.41 249.13 220.33 249.67 220.29 C 249.67 220.97 249.69 222.33 249.70 223.01 C 249.70 226.46 249.98 229.94 249.49 233.36 L 247.62 233.76 C 247.66 230.10 247.36 226.40 247.78 222.76 C 247.74 221.98 247.64 221.21 247.50 220.45 Z" />
<path fill="#27007e" opacity="1.00" d=" M 221.55 225.20 C 223.70 222.30 227.85 224.10 230.87 223.91 C 230.26 224.26 229.03 224.97 228.41 225.32 C 228.54 225.61 228.80 226.19 228.93 226.48 C 227.54 228.21 226.09 229.90 224.67 231.61 C 226.70 231.68 228.72 231.75 230.75 231.82 L 230.59 232.33 C 230.47 232.71 230.22 233.47 230.10 233.85 C 227.09 233.75 224.07 233.72 221.08 233.40 C 222.87 230.61 225.03 228.08 227.21 225.59 C 225.32 225.47 223.43 225.37 221.55 225.20 Z" />
</g>
<g id="#fe0000ff">
<path fill="#fe0000" opacity="1.00" d=" M 82.47 143.76 C 86.23 141.51 90.94 142.03 95.10 142.62 C 100.86 144.77 105.29 150.77 104.69 157.06 C 104.96 166.66 93.68 174.35 84.86 170.42 C 77.08 167.75 73.19 158.32 76.28 150.83 C 77.56 147.91 79.80 145.46 82.47 143.76 Z" />
</g>
<g id="#000000ff">
<path fill="#000000" opacity="1.00" d=" M 255.03 146.73 C 264.75 142.85 276.53 143.40 285.18 149.60 C 290.17 153.34 294.57 158.21 296.70 164.15 C 299.22 170.82 299.10 178.29 297.23 185.10 C 294.52 192.57 289.14 199.10 282.06 202.79 C 274.41 206.89 265.03 207.22 256.89 204.40 C 248.10 201.10 241.24 193.65 237.96 184.93 C 236.78 176.83 236.04 167.83 240.34 160.47 C 243.56 154.40 248.98 149.83 255.03 146.73 M 258.91 154.91 C 251.49 158.24 245.76 165.75 245.54 174.03 C 244.93 182.13 249.46 190.26 256.45 194.30 C 260.83 196.96 266.05 197.73 271.10 197.35 C 277.83 195.81 284.05 191.73 287.32 185.54 C 290.28 180.78 289.91 174.99 289.40 169.65 C 286.86 161.77 280.28 155.03 271.97 153.56 C 267.61 153.22 262.96 152.96 258.91 154.91 Z" />
<path fill="#000000" opacity="1.00" d=" M 125.26 176.95 C 129.39 166.73 133.61 156.55 137.82 146.36 C 141.38 146.35 144.94 146.35 148.50 146.34 C 150.11 150.12 151.57 153.96 153.22 157.73 C 158.70 171.24 164.31 184.70 169.77 198.22 C 170.73 200.36 171.66 202.52 172.61 204.68 C 169.38 205.58 166.02 205.26 162.72 205.30 C 161.32 202.26 160.13 199.13 158.85 196.04 C 158.30 194.65 157.74 193.27 157.20 191.89 C 156.92 191.33 156.37 190.20 156.10 189.64 C 147.65 189.69 139.20 189.55 130.76 189.69 C 127.55 194.05 126.33 199.63 124.21 204.60 C 120.95 205.69 117.47 205.20 114.10 205.32 C 114.75 201.59 116.51 198.22 117.90 194.74 C 120.41 188.84 122.70 182.84 125.26 176.95 M 136.82 173.92 C 135.83 176.35 134.85 178.79 134.10 181.32 C 140.04 181.36 145.98 181.30 151.93 181.36 C 149.93 173.28 146.01 165.81 143.13 158.02 C 140.95 163.29 138.91 168.61 136.82 173.92 Z" />
<path fill="#000000" opacity="1.00" d=" M 180.32 205.59 C 180.25 185.89 180.25 166.18 180.32 146.47 C 188.86 146.62 197.40 146.31 205.94 146.66 C 213.38 149.13 221.31 152.39 225.85 159.15 C 230.69 166.84 229.98 176.34 229.25 185.01 C 227.75 190.44 225.20 196.00 220.23 199.08 C 215.00 202.32 209.28 205.56 202.94 205.56 C 195.40 205.61 187.86 205.52 180.32 205.59 M 189.63 155.03 C 189.70 169.14 189.60 183.25 189.68 197.37 C 195.49 197.27 201.52 198.05 207.04 195.78 C 212.88 193.75 217.18 188.76 219.35 183.10 C 220.15 175.88 220.45 167.57 215.02 161.95 C 208.82 154.71 198.47 153.94 189.63 155.03 Z" />
<path fill="#000000" opacity="1.00" d=" M 306.22 192.01 C 306.30 176.83 306.13 161.65 306.30 146.48 C 315.53 146.61 324.78 146.35 334.01 146.63 C 338.58 148.36 343.06 150.84 345.77 155.06 C 349.97 161.63 349.49 171.20 343.79 176.75 C 340.58 179.76 336.60 182.50 332.06 182.68 C 326.85 182.92 321.64 182.73 316.43 182.75 C 316.04 190.32 316.76 197.93 316.01 205.49 C 312.77 205.46 309.52 205.44 306.28 205.49 C 306.20 201.00 306.24 196.50 306.22 192.01 M 316.33 155.32 C 316.34 161.66 316.27 168.00 316.37 174.35 C 320.94 174.32 325.51 174.33 330.08 174.33 C 333.46 173.25 336.37 171.12 338.16 168.03 C 338.29 166.30 338.38 164.56 338.48 162.83 C 336.98 159.25 334.11 155.81 330.00 155.44 C 325.45 155.18 320.89 155.40 316.33 155.32 Z" />
<path fill="#000000" opacity="1.00" d=" M 313.75 219.69 C 314.13 219.68 314.91 219.65 315.29 219.64 C 315.33 220.12 315.41 221.08 315.45 221.56 C 314.78 221.63 313.45 221.77 312.79 221.84 C 313.31 226.42 318.24 223.54 321.13 223.53 C 325.44 224.56 326.07 231.28 322.41 233.40 C 320.40 234.23 318.29 233.48 316.48 232.54 C 315.80 230.42 315.71 228.16 314.98 226.07 C 314.59 225.83 313.79 225.35 313.40 225.11 C 312.42 228.03 314.43 232.03 311.74 234.21 C 310.73 230.70 313.19 225.57 308.78 223.90 C 306.81 226.97 307.46 230.75 309.16 233.77 C 308.50 233.71 307.17 233.59 306.50 233.53 C 305.88 229.08 304.20 223.92 307.25 219.99 C 307.37 220.93 307.62 222.81 307.75 223.75 C 308.66 223.75 310.47 223.73 311.38 223.72 C 311.44 223.01 311.55 221.58 311.60 220.87 C 312.14 220.57 313.21 219.99 313.75 219.69 M 318.12 225.71 C 316.99 227.91 317.60 230.32 318.69 232.38 C 319.59 232.42 320.48 232.47 321.39 232.53 C 323.19 230.51 322.76 227.84 322.48 225.39 C 321.00 225.31 319.55 225.42 318.12 225.71 Z" />
<path fill="#000000" opacity="1.00" d=" M 45.58 220.28 C 46.11 220.31 47.18 220.37 47.71 220.39 C 49.35 224.84 51.33 229.14 52.99 233.58 C 52.45 233.54 51.35 233.47 50.81 233.43 C 50.29 232.09 49.75 230.77 49.22 229.44 C 47.42 229.46 45.62 229.48 43.82 229.52 C 43.34 230.88 42.84 232.24 42.35 233.61 C 41.85 233.58 40.85 233.51 40.36 233.48 C 42.26 229.14 43.65 224.61 45.58 220.28 M 45.88 223.45 C 45.42 224.88 44.92 226.30 44.40 227.71 C 45.83 227.75 47.27 227.78 48.71 227.81 C 48.22 226.35 47.71 224.88 47.25 223.41 C 46.91 223.42 46.22 223.44 45.88 223.45 Z" />
<path fill="#000000" opacity="1.00" d=" M 58.51 220.33 C 58.95 220.37 59.85 220.45 60.29 220.50 C 60.24 224.81 60.25 229.12 60.28 233.43 L 58.54 233.60 C 58.50 229.17 58.52 224.75 58.51 220.33 Z" />
<path fill="#000000" opacity="1.00" d=" M 81.79 220.20 C 82.16 220.24 82.91 220.33 83.28 220.37 C 82.80 222.08 82.69 223.87 83.28 225.57 C 83.39 228.23 83.37 230.89 83.36 233.55 C 82.93 233.54 82.07 233.52 81.64 233.52 C 81.64 230.82 81.63 228.12 81.72 225.43 C 82.31 223.72 82.25 221.92 81.79 220.20 Z" />
<path fill="#000000" opacity="1.00" d=" M 95.78 221.60 C 96.29 221.17 96.81 220.74 97.33 220.32 C 97.40 221.01 97.53 222.39 97.60 223.09 C 98.46 224.13 99.25 225.26 97.46 225.90 C 97.20 228.74 97.67 231.52 98.99 234.06 C 97.97 233.52 96.32 233.71 95.72 232.57 C 95.31 229.89 95.86 227.08 94.80 224.52 C 95.13 223.55 95.45 222.57 95.78 221.60 Z" />
<path fill="#000000" opacity="1.00" d=" M 106.82 220.35 C 107.29 220.34 108.23 220.33 108.69 220.32 C 108.47 225.07 109.35 229.94 108.10 234.61 C 106.47 231.95 106.63 228.84 106.86 225.88 C 107.43 224.06 107.39 222.15 106.82 220.35 Z" />
<path fill="#000000" opacity="1.00" d=" M 137.71 220.36 C 138.08 220.35 138.83 220.33 139.20 220.32 C 139.00 224.73 139.36 229.14 139.33 233.55 C 138.89 233.53 138.00 233.49 137.55 233.47 C 137.21 230.99 138.29 227.93 136.97 225.84 C 135.30 224.74 134.41 225.10 134.30 226.93 C 133.95 229.39 134.54 231.75 135.91 233.80 C 134.82 233.65 133.74 233.49 132.66 233.34 C 132.51 230.75 132.49 228.16 132.52 225.57 C 131.79 225.29 130.33 224.73 129.60 224.45 C 129.56 227.44 129.55 230.44 129.53 233.44 C 127.29 233.35 124.98 233.99 122.80 233.31 C 121.08 231.25 121.72 228.43 121.62 225.98 C 121.35 224.66 122.45 223.89 123.23 223.06 C 123.47 225.92 123.45 228.79 123.52 231.66 C 124.85 231.70 126.19 231.71 127.53 231.71 C 127.75 229.18 127.79 226.64 127.82 224.11 C 128.81 224.29 130.79 224.65 131.78 224.83 C 132.13 223.66 132.45 222.48 132.77 221.31 C 133.16 221.31 133.93 221.32 134.32 221.32 C 134.41 222.21 134.59 223.98 134.68 224.87 C 135.14 224.76 136.05 224.56 136.51 224.46 C 137.57 223.38 137.39 221.73 137.71 220.36 Z" />
<path fill="#000000" opacity="1.00" d=" M 198.37 220.43 C 198.79 220.39 199.62 220.32 200.04 220.29 C 199.81 221.78 199.69 223.30 199.81 224.81 C 200.51 227.63 200.23 230.57 200.25 233.44 C 198.05 233.39 195.85 233.47 193.66 233.48 C 193.54 231.02 193.51 228.56 193.41 226.10 C 192.23 225.15 192.68 223.92 193.35 222.90 C 193.43 222.40 193.59 221.40 193.66 220.90 C 195.28 221.54 195.60 223.37 196.43 224.71 C 194.22 227.15 194.38 232.94 198.47 233.39 C 198.46 229.07 198.59 224.74 198.37 220.43 Z" />
<path fill="#000000" opacity="1.00" d=" M 242.93 221.97 C 243.40 221.39 243.88 220.81 244.36 220.23 C 244.45 220.92 244.63 222.29 244.72 222.98 C 246.05 223.93 245.51 225.11 244.62 226.17 C 244.27 228.95 245.04 231.59 245.98 234.17 C 241.56 233.70 242.67 228.82 242.66 225.73 C 242.41 225.46 241.89 224.94 241.64 224.68 C 242.08 223.78 242.50 222.87 242.93 221.97 Z" />
<path fill="#000000" opacity="1.00" d=" M 278.54 220.32 L 279.33 220.54 C 279.66 220.64 280.34 220.83 280.68 220.92 C 280.15 222.93 279.95 224.99 279.79 227.06 C 282.01 226.90 284.24 226.69 286.47 226.51 C 286.51 225.16 286.56 223.81 286.51 222.47 C 285.90 222.11 284.67 221.39 284.05 221.03 C 285.02 220.86 285.99 220.71 286.96 220.56 C 288.91 221.71 289.10 224.21 288.42 226.16 C 286.71 228.86 283.10 228.09 280.42 228.36 C 280.41 230.08 280.42 231.81 280.42 233.54 C 279.96 233.54 279.04 233.53 278.58 233.52 C 278.56 229.12 278.59 224.72 278.54 220.32 Z" />
<path fill="#000000" opacity="1.00" d=" M 290.75 220.45 C 291.20 220.44 292.11 220.42 292.56 220.41 C 292.52 224.80 292.52 229.19 292.50 233.59 C 292.07 233.55 291.21 233.47 290.78 233.43 C 290.78 229.10 290.82 224.77 290.75 220.45 Z" />
<path fill="#000000" opacity="1.00" d=" M 69.27 221.31 C 69.92 221.37 71.22 221.50 71.87 221.56 L 70.39 222.07 C 70.20 225.29 70.26 228.52 70.26 231.74 C 72.30 231.66 74.35 231.56 76.39 231.43 C 77.47 228.57 77.66 225.54 76.59 222.66 C 75.75 222.43 74.06 221.98 73.22 221.75 C 73.91 221.42 75.30 220.77 75.99 220.44 C 79.29 221.92 79.65 225.97 79.50 229.15 C 78.37 230.71 77.48 232.74 75.50 233.37 C 73.16 233.89 70.73 233.66 68.39 233.30 L 68.44 232.82 C 68.76 228.99 68.76 225.12 69.27 221.31 Z" />
<path fill="#000000" opacity="1.00" d=" M 152.30 224.38 C 154.57 224.23 157.44 222.62 159.37 224.50 C 160.97 227.20 160.11 230.46 160.32 233.42 C 159.85 233.45 158.93 233.50 158.47 233.53 C 158.47 230.87 158.46 228.22 158.38 225.57 C 157.42 225.50 155.51 225.38 154.55 225.32 C 154.08 228.44 154.00 231.64 153.00 234.66 C 151.93 231.33 152.42 227.81 152.30 224.38 Z" />
<path fill="#000000" opacity="1.00" d=" M 182.66 223.81 C 185.10 224.04 188.28 222.62 190.02 224.99 C 190.78 226.43 191.02 228.08 191.46 229.63 C 190.57 230.96 189.92 232.53 188.60 233.50 C 187.16 233.66 185.72 233.66 184.27 233.49 C 184.31 234.78 184.34 236.07 184.38 237.36 C 183.94 237.37 183.08 237.39 182.64 237.40 C 182.58 232.87 182.65 228.34 182.66 223.81 M 184.65 225.53 C 184.11 228.06 184.16 230.68 185.72 232.86 C 189.66 232.56 189.94 228.09 188.51 225.28 C 187.22 225.35 185.93 225.43 184.65 225.53 Z" />
<path fill="#000000" opacity="1.00" d=" M 232.15 227.20 C 231.56 223.23 237.20 222.52 239.42 224.69 C 240.35 227.51 240.05 230.54 240.25 233.46 C 237.51 233.01 234.21 234.73 231.99 232.48 C 231.37 232.94 230.74 233.40 230.10 233.85 C 230.22 233.47 230.47 232.71 230.59 232.33 C 230.98 231.36 231.37 230.39 231.75 229.42 C 233.60 228.28 235.72 227.79 237.84 227.42 C 237.78 226.85 237.64 225.71 237.57 225.14 C 235.54 225.16 233.66 225.78 232.15 227.20 M 234.57 230.07 C 234.52 230.46 234.42 231.24 234.37 231.63 L 235.06 231.97 C 236.71 231.96 237.43 231.24 237.24 229.80 C 236.57 229.87 235.24 230.01 234.57 230.07 Z" />
<path fill="#000000" opacity="1.00" d=" M 254.49 223.73 C 259.07 222.11 262.46 228.23 259.87 231.80 C 258.40 234.49 253.60 234.58 252.23 231.77 C 250.53 229.10 251.38 224.96 254.49 223.73 M 253.59 225.52 C 253.47 227.54 253.43 229.57 253.49 231.61 C 255.14 231.69 256.79 231.71 258.44 231.66 C 258.54 229.61 258.51 227.55 258.38 225.50 C 256.78 225.45 255.18 225.45 253.59 225.52 Z" />
<path fill="#000000" opacity="1.00" d=" M 333.39 224.15 C 337.28 223.29 341.12 224.86 344.98 223.52 C 345.31 224.13 345.98 225.35 346.32 225.96 C 345.89 228.66 347.55 232.42 344.73 234.17 C 344.46 231.28 344.50 228.37 344.42 225.48 C 343.50 225.47 341.65 225.45 340.73 225.44 C 340.63 228.14 340.59 230.85 340.57 233.56 C 340.08 233.53 339.10 233.46 338.61 233.43 C 338.63 230.78 338.62 228.13 338.59 225.48 C 337.52 225.42 336.45 225.36 335.39 225.31 C 334.89 227.81 334.71 230.36 334.74 232.91 L 333.29 232.93 C 333.29 230.00 333.29 227.07 333.39 224.15 Z" />
<path fill="#000000" opacity="1.00" d=" M 85.46 227.24 C 85.00 223.14 90.01 222.97 92.64 224.48 C 92.63 225.05 92.61 226.19 92.60 226.76 C 90.91 225.79 89.10 225.08 87.09 225.19 C 87.40 228.93 93.83 227.05 93.38 231.17 C 92.23 235.24 85.08 234.50 85.27 230.03 C 87.26 231.25 89.14 232.86 91.66 232.55 C 92.22 228.44 86.99 229.97 85.46 227.24 Z" />
<path fill="#000000" opacity="1.00" d=" M 100.43 224.50 C 102.09 224.15 103.73 223.77 105.38 223.41 L 105.61 225.40 C 104.87 225.45 103.39 225.56 102.65 225.62 C 102.50 228.22 102.45 230.83 102.45 233.44 C 101.95 233.47 100.96 233.51 100.46 233.54 C 100.48 230.52 100.50 227.51 100.43 224.50 Z" />
<path fill="#000000" opacity="1.00" d=" M 143.43 233.68 C 140.34 231.03 140.22 224.53 144.88 223.56 C 149.31 222.62 151.59 228.21 149.65 231.57 C 148.58 234.05 145.65 233.73 143.43 233.68 M 143.85 225.38 C 143.44 226.64 143.03 227.90 142.61 229.16 C 143.37 230.43 144.15 231.67 144.94 232.92 C 146.28 232.16 147.55 231.31 148.75 230.35 C 148.48 228.66 148.62 226.75 147.26 225.47 C 146.13 225.35 144.99 225.38 143.85 225.38 Z" />
<path fill="#000000" opacity="1.00" d=" M 202.53 224.34 C 203.18 224.32 204.48 224.26 205.13 224.24 C 205.77 224.06 207.06 223.70 207.71 223.52 C 210.18 225.61 213.05 222.61 215.64 224.52 C 215.71 227.89 216.38 231.43 214.95 234.62 C 214.12 231.60 214.38 228.43 213.74 225.37 C 212.66 225.39 211.58 225.40 210.50 225.42 C 210.01 228.40 211.33 232.12 208.64 234.26 C 208.31 231.32 208.37 228.36 208.34 225.40 C 207.43 225.43 205.63 225.48 204.72 225.51 C 204.59 227.82 204.60 230.13 204.53 232.45 C 204.03 232.59 203.02 232.86 202.52 233.00 C 202.54 230.11 202.57 227.23 202.53 224.34 Z" />
<path fill="#000000" opacity="1.00" d=" M 262.49 224.19 C 262.94 224.37 263.85 224.74 264.30 224.92 C 264.73 227.76 264.25 230.64 264.36 233.50 C 263.91 233.52 263.01 233.56 262.56 233.57 C 262.56 230.44 262.58 227.31 262.49 224.19 Z" />
<path fill="#000000" opacity="1.00" d=" M 265.97 224.83 C 265.80 222.01 269.01 224.39 270.39 224.71 C 270.49 227.64 270.51 230.57 270.52 233.51 C 270.05 233.49 269.13 233.47 268.67 233.45 C 268.67 230.88 268.66 228.30 268.54 225.73 C 267.90 225.50 266.62 225.05 265.97 224.83 Z" />
<path fill="#000000" opacity="1.00" d=" M 295.44 224.59 C 297.62 223.86 300.47 222.62 302.39 224.58 C 303.79 227.33 303.08 230.52 303.37 233.49 C 300.79 233.36 298.21 233.63 295.64 233.64 C 295.28 232.59 294.72 231.59 294.61 230.47 C 295.55 227.85 298.67 228.07 300.90 227.43 C 300.86 226.88 300.76 225.80 300.72 225.26 C 299.69 225.29 298.67 225.34 297.65 225.38 C 296.92 225.99 296.18 226.60 295.44 227.20 C 295.44 226.55 295.44 225.24 295.44 224.59 M 296.61 229.82 C 295.72 232.49 298.17 232.56 300.11 232.64 C 300.51 231.79 301.32 230.08 301.72 229.22 C 300.00 229.30 298.26 229.30 296.61 229.82 Z" />
<path fill="#000000" opacity="1.00" d=" M 326.55 224.50 C 328.17 224.15 329.77 223.77 331.39 223.41 C 331.46 223.92 331.59 224.93 331.65 225.44 C 330.93 225.49 329.48 225.60 328.76 225.65 C 328.60 228.27 328.55 230.90 328.53 233.52 C 328.04 233.50 327.06 233.47 326.57 233.45 C 326.61 230.47 326.63 227.48 326.55 224.50 Z" />
</g>
</svg>
