<?xml version="1.0" encoding="UTF-8" ?>
<!DOCTYPE svg PUBLIC "-//W3C//DTD SVG 1.1//EN" "http://www.w3.org/Graphics/SVG/1.1/DTD/svg11.dtd">
<svg width="400pt" height="400pt" viewBox="0 0 400 400" version="1.1" xmlns="http://www.w3.org/2000/svg">
<g id="#1195cfff">
<path fill="#1195cf" opacity="1.00" d=" M 0.00 0.00 L 400.00 0.00 L 400.00 400.00 L 0.00 400.00 L 0.00 0.00 M 13.79 13.81 C 13.79 137.94 13.77 262.07 13.80 386.20 C 137.93 386.22 262.07 386.22 386.20 386.20 C 386.22 262.07 386.22 137.93 386.20 13.80 C 262.07 13.79 137.93 13.76 13.79 13.81 Z" />
<path fill="#1195cf" opacity="1.00" d=" M 91.91 88.79 C 102.73 88.70 113.55 88.81 124.37 88.73 C 134.93 116.30 144.83 144.14 155.13 171.81 C 165.12 198.87 175.06 225.95 185.04 253.01 C 189.12 263.93 192.59 275.05 195.99 286.19 C 203.71 261.02 213.65 236.61 223.01 212.02 C 238.54 171.47 254.05 130.92 269.58 90.37 C 270.07 88.32 272.45 88.88 274.01 88.75 C 283.01 88.77 292.00 88.73 300.99 88.79 C 271.80 161.62 242.33 234.34 213.09 307.15 C 212.51 308.51 211.88 309.85 211.30 311.22 C 201.09 311.27 190.87 311.21 180.66 311.27 C 166.30 276.08 152.49 240.66 138.32 205.40 C 122.89 166.51 107.19 127.73 91.91 88.79 Z" />
</g>
<g id="#000000ff">
<path fill="#000000" opacity="1.00" d=" M 13.79 13.81 C 137.93 13.76 262.07 13.79 386.20 13.80 C 386.22 137.93 386.22 262.07 386.20 386.20 C 262.07 386.22 137.93 386.22 13.80 386.20 C 13.77 262.07 13.79 137.94 13.79 13.81 M 91.91 88.79 C 107.19 127.73 122.89 166.51 138.32 205.40 C 152.49 240.66 166.30 276.08 180.66 311.27 C 190.87 311.21 201.09 311.27 211.30 311.22 C 211.88 309.85 212.51 308.51 213.09 307.15 C 242.33 234.34 271.80 161.62 300.99 88.79 C 292.00 88.73 283.01 88.77 274.01 88.75 C 272.45 88.88 270.07 88.32 269.58 90.37 C 254.05 130.92 238.54 171.47 223.01 212.02 C 213.65 236.61 203.71 261.02 195.99 286.19 C 192.59 275.05 189.12 263.93 185.04 253.01 C 175.06 225.95 165.12 198.87 155.13 171.81 C 144.83 144.14 134.93 116.30 124.37 88.73 C 113.55 88.81 102.73 88.70 91.91 88.79 Z" />
</g>
</svg>
